<svg xmlns="http://www.w3.org/2000/svg" xmlns:xlink="http://www.w3.org/1999/xlink" width="500" zoomAndPan="magnify" viewBox="0 0 375 374.999991" height="500" preserveAspectRatio="xMidYMid meet" version="1.0"><defs><clipPath id="ea6ca4eea4"><path d="M 152 22.710938 L 297 22.710938 L 297 119 L 152 119 Z M 152 22.710938 " clip-rule="nonzero"/></clipPath><clipPath id="973e24fa78"><path d="M 115 22.710938 L 223 22.710938 L 223 168 L 115 168 Z M 115 22.710938 " clip-rule="nonzero"/></clipPath><clipPath id="8a8935e943"><path d="M 162 300 L 192 300 L 192 329.460938 L 162 329.460938 Z M 162 300 " clip-rule="nonzero"/></clipPath></defs><g clip-path="url(#ea6ca4eea4)"><path fill="#1456c1" d="M 224.574219 107.203125 C 223.253906 111.085938 224.261719 116.140625 227.949219 118.414062 C 227.957031 118.414062 227.957031 118.421875 227.957031 118.421875 C 228.117188 118.535156 228.285156 118.648438 228.453125 118.75 C 201.566406 106.285156 175.878906 90.53125 158.855469 65.40625 C 119.710938 -12.121094 264.703125 32.277344 296.496094 70.71875 C 249.851562 32.523438 193.488281 25.933594 178.222656 34.945312 C 162.957031 43.964844 177.753906 74.976562 231.058594 101.515625 C 227.949219 102.308594 225.535156 104.191406 224.574219 107.207031 Z M 224.574219 107.203125 " fill-opacity="1" fill-rule="nonzero"/></g><path fill="#1456c1" d="M 248.820312 110.421875 C 249.867188 110.882812 250.910156 111.332031 251.953125 111.777344 C 251.714844 116.644531 249.441406 121.324219 245.851562 124.589844 C 245.617188 124.8125 245.363281 125.023438 245.117188 125.226562 C 240.574219 123.699219 236.050781 121.976562 231.597656 120.09375 C 238.839844 122.484375 245.5625 114.558594 243.261719 107.722656 C 245.078125 108.617188 246.9375 109.511719 248.824219 110.421875 Z M 248.820312 110.421875 " fill-opacity="1" fill-rule="nonzero"/><path fill="#1456c1" d="M 308.417969 129.09375 C 293.730469 135.332031 277.960938 133.191406 262.710938 130.15625 C 261.34375 125.753906 262.050781 120.707031 264.667969 116.898438 C 266.835938 117.714844 269.03125 118.503906 271.238281 119.273438 C 261.800781 130.515625 284.582031 138.066406 283.53125 123.261719 C 291.675781 125.675781 300.140625 127.738281 308.417969 129.089844 Z M 308.417969 129.09375 " fill-opacity="1" fill-rule="nonzero"/><g clip-path="url(#973e24fa78)"><path fill="#1456c1" d="M 222.5 151.304688 C 221.523438 158.320312 216.820312 164.347656 210.464844 167.125 C 150.832031 146.5625 71.3125 56.621094 144.734375 22.832031 C 103.304688 54.144531 150.734375 113.898438 196.824219 139.121094 C 185.953125 145.835938 193.125 159.898438 202.292969 158.878906 C 204.15625 159.363281 214.085938 156.996094 212.984375 147.257812 C 216.160156 148.707031 219.339844 150.050781 222.5 151.304688 Z M 222.5 151.304688 " fill-opacity="1" fill-rule="nonzero"/></g><path fill="#1456c1" d="M 335.171875 153.671875 C 321.152344 185.765625 260.804688 185.832031 227.796875 173.472656 C 225.78125 168.25 226.480469 162.007812 229.226562 157.246094 C 229.796875 156.277344 230.476562 155.363281 231.195312 154.496094 C 234.648438 155.8125 238.320312 157.007812 242.152344 158.0625 C 232.125 162.40625 236.195312 176.242188 246.113281 176.476562 C 253.867188 176.425781 258.597656 165.570312 252.375 160.460938 C 288.058594 167.800781 337.996094 161.539062 338.1875 121.738281 C 340.832031 133.21875 340.019531 144.152344 335.171875 153.671875 Z M 335.171875 153.671875 " fill-opacity="1" fill-rule="nonzero"/><path fill="#1456c1" d="M 182 204.648438 C 120.554688 178.535156 51.621094 90.464844 98.21875 40.726562 C 77.027344 78.273438 124.632812 144.929688 173.1875 174.785156 C 157.488281 173.527344 156.953125 197.832031 172.582031 197.292969 C 177.6875 198.136719 187.847656 191.390625 182.882812 180.472656 C 185.484375 181.878906 188.085938 183.195312 190.695312 184.410156 C 191.875 192.300781 188.175781 200.355469 181.996094 204.65625 Z M 182 204.648438 " fill-opacity="1" fill-rule="nonzero"/><path fill="#1456c1" d="M 345.914062 173.664062 C 334.445312 232.464844 247.660156 234.230469 197.230469 211.4375 C 194.804688 204.117188 197.125 195.433594 202.808594 190.355469 C 206.128906 192.015625 209.597656 193.585938 213.195312 195.0625 C 200.960938 199.703125 205.957031 215.921875 216.726562 216.097656 C 224.886719 216.046875 230.726562 205.816406 225.144531 199.394531 C 268.914062 213.984375 331.375 212.847656 345.90625 173.664062 Z M 345.914062 173.664062 " fill-opacity="1" fill-rule="nonzero"/><path fill="#1456c1" d="M 171.867188 225.90625 C 105.355469 197.175781 37.746094 110.53125 63.828125 63.925781 C 10.929688 120.542969 91.507812 221.527344 166.699219 250.121094 C 174.128906 245.167969 176.710938 233.660156 171.871094 225.90625 Z M 157.558594 243.46875 C 155.863281 243.46875 147.394531 242.976562 147.136719 233.355469 C 147.40625 219.671875 167.703125 219.6875 167.957031 233.324219 C 167.6875 242.984375 159.257812 243.476562 157.558594 243.476562 Z M 157.558594 243.46875 " fill-opacity="1" fill-rule="nonzero"/><path fill="#1456c1" d="M 338.148438 211.203125 C 326.578125 271.222656 241.503906 278.273438 186.886719 257.859375 C 182.988281 250.167969 185.773438 239.824219 192.625 235.085938 C 196.632812 236.789062 200.78125 238.359375 205.050781 239.78125 C 191.042969 238.589844 190.742188 257.777344 203.492188 258.867188 C 214.070312 258.472656 216.328125 244.914062 206.988281 240.421875 C 254.011719 256.109375 322.476562 253.597656 338.148438 211.195312 Z M 338.148438 211.203125 " fill-opacity="1" fill-rule="nonzero"/><path fill="#1456c1" d="M 175.972656 274.925781 C 175.8125 274.25 175.597656 273.582031 175.332031 272.929688 C 102.824219 253.464844 19.359375 167.320312 39.117188 110.683594 C -0.90625 174.902344 86.304688 273.726562 169.191406 291.703125 C 174.617188 288.425781 177.472656 281.15625 175.972656 274.925781 Z M 160.738281 285.023438 C 151.96875 285.640625 151.5625 271.640625 160.652344 272.054688 C 169.433594 271.4375 169.820312 285.4375 160.738281 285.023438 Z M 160.738281 285.023438 " fill-opacity="1" fill-rule="nonzero"/><path fill="#1456c1" d="M 222.96875 283.644531 C 213.351562 282.769531 204.085938 281.167969 195.914062 278.898438 C 191.589844 283.945312 191.355469 292.59375 195.480469 297.894531 C 231.597656 305.867188 290.492188 297.941406 302.34375 267.761719 C 288.246094 281.835938 253.765625 286.464844 222.96875 283.644531 Z M 211.933594 293.460938 C 203.113281 299.996094 196.554688 283.65625 207.648438 282.320312 C 212.503906 282.847656 217.308594 288.328125 211.933594 293.460938 Z M 211.933594 293.460938 " fill-opacity="1" fill-rule="nonzero"/><path fill="#1456c1" d="M 177.75 319.863281 C 173.949219 317.328125 174.101562 311.792969 178.152344 309.472656 C 121.300781 297.546875 66.84375 257.382812 50.195312 232.855469 C 67.734375 275.113281 120.203125 312.46875 172.148438 323.046875 C 174.242188 323.484375 170.152344 320.015625 172.261719 320.367188 C 174.21875 320.699219 176.183594 320.984375 178.15625 321.25 C 177.996094 320.792969 177.855469 320.332031 177.753906 319.863281 Z M 177.75 319.863281 " fill-opacity="1" fill-rule="nonzero"/><path fill="#1456c1" d="M 227.957031 118.414062 C 200.773438 106.464844 174.964844 89.308594 158.199219 64.453125 C 173.457031 80.105469 200.445312 97.375 224.574219 107.207031 C 223.253906 111.09375 224.261719 116.148438 227.949219 118.421875 Z M 227.957031 118.414062 " fill-opacity="1" fill-rule="nonzero"/><path fill="#1456c1" d="M 251.140625 116.308594 C 250.144531 119.476562 248.300781 122.359375 245.851562 124.589844 C 245.617188 124.8125 245.363281 125.023438 245.117188 125.226562 C 240.832031 123.683594 236.539062 122.035156 232.273438 120.253906 C 236.96875 121.394531 241.570312 118.335938 243.109375 113.984375 C 245.828125 114.839844 248.507812 115.613281 251.140625 116.304688 Z M 251.140625 116.308594 " fill-opacity="1" fill-rule="nonzero"/><path fill="#1456c1" d="M 318.609375 119.792969 C 306.839844 138.089844 280.570312 133.308594 262.710938 130.15625 C 261.597656 126.546875 261.867188 122.5 263.445312 119.066406 C 265.679688 119.578125 268.019531 120.003906 270.398438 120.316406 C 263.214844 133.96875 288.160156 136.109375 282.804688 121.035156 C 303.410156 120.832031 324.941406 110.980469 308.484375 83.539062 C 319.277344 97.128906 323.480469 110.21875 318.605469 119.792969 Z M 318.609375 119.792969 " fill-opacity="1" fill-rule="nonzero"/><path fill="#1456c1" d="M 282.496094 89.984375 C 254.730469 87.144531 220.714844 72.824219 203.035156 54.746094 C 201.734375 53.417969 202.699219 51.1875 204.554688 51.230469 C 234.4375 51.878906 267.035156 66.058594 284.292969 86.628906 C 285.472656 88.035156 284.324219 90.175781 282.488281 89.984375 Z M 282.496094 89.984375 " fill-opacity="1" fill-rule="nonzero"/><path fill="#1456c1" d="M 220.960938 95.996094 C 202.050781 112.25 226.917969 141.664062 246.199219 125.75 L 246.203125 125.75 C 266.640625 107.050781 239.675781 80.410156 220.960938 95.996094 Z M 228.453125 118.75 C 228.285156 118.648438 228.117188 118.539062 227.957031 118.421875 C 227.957031 118.421875 227.957031 118.414062 227.949219 118.414062 C 220.277344 113.339844 224.605469 100.367188 233.953125 101.164062 C 250.042969 101.007812 244.25 127.4375 228.449219 118.75 Z M 228.453125 118.75 " fill-opacity="1" fill-rule="nonzero"/><path fill="#1456c1" d="M 187.851562 133.71875 C 170.726562 151.507812 192.402344 177.804688 213.308594 165.59375 C 238.382812 147.472656 209.054688 114.726562 187.851562 133.71875 Z M 213.050781 148.382812 C 212.78125 162.558594 191.714844 162.535156 191.46875 148.402344 C 191.167969 135.347656 212.179688 133.105469 213.050781 148.382812 Z M 213.050781 148.382812 " fill-opacity="1" fill-rule="nonzero"/><path fill="#1456c1" d="M 162.421875 167.453125 C 156.046875 170.523438 151.070312 177.535156 151.382812 186.886719 C 152.679688 213.855469 193.273438 213.6875 193.777344 186.019531 C 193.511719 167.484375 174.902344 161.21875 162.417969 167.453125 Z M 172.542969 174.769531 C 189.796875 175.1875 185.878906 198.605469 172.582031 197.285156 C 157.324219 197.914062 157.332031 174.167969 172.542969 174.769531 Z M 172.542969 174.769531 " fill-opacity="1" fill-rule="nonzero"/><path fill="#1456c1" d="M 150.746094 214.632812 C 143.035156 216.859375 136.511719 225.125 137.621094 235.457031 C 140.0625 259.648438 177.144531 259.046875 177.617188 233.34375 C 177.371094 217.144531 162.34375 210.847656 150.746094 214.632812 Z M 157.527344 223.21875 C 159.230469 223.21875 167.722656 223.710938 167.960938 233.324219 C 167.703125 247.011719 147.414062 247.019531 147.144531 233.355469 C 147.425781 223.707031 155.839844 223.21875 157.527344 223.21875 Z M 157.527344 223.21875 " fill-opacity="1" fill-rule="nonzero"/><path fill="#1456c1" d="M 177.796875 274.496094 C 171.867188 251.355469 136.65625 261.195312 144.03125 284.203125 C 151.226562 304.742188 182.863281 295.777344 177.796875 274.496094 Z M 160.738281 285.023438 C 151.96875 285.640625 151.5625 271.640625 160.652344 272.054688 C 169.433594 271.4375 169.820312 285.4375 160.738281 285.023438 Z M 160.738281 285.023438 " fill-opacity="1" fill-rule="nonzero"/><path fill="#1456c1" d="M 292.730469 120.113281 C 289.148438 105.914062 267.71875 102.546875 260.996094 117.46875 C 250.289062 146.296875 298.605469 149.894531 292.730469 120.113281 Z M 283.589844 124.601562 C 283.207031 136.296875 265.058594 131.761719 269.816406 121.382812 C 272.703125 114.410156 284.226562 117.339844 283.589844 124.601562 Z M 283.589844 124.601562 " fill-opacity="1" fill-rule="nonzero"/><path fill="#1456c1" d="M 264.332031 162.273438 C 260.800781 147.921875 239.296875 140.878906 229.234375 157.253906 C 218.265625 174.953125 242.667969 196.660156 259.289062 180.40625 C 264.8125 174.570312 265.949219 167.96875 264.332031 162.273438 Z M 245.4375 157.324219 C 257.628906 157.859375 258.753906 175.375 246.121094 176.476562 C 233.996094 175.9375 232.640625 158.453125 245.4375 157.324219 Z M 245.4375 157.324219 " fill-opacity="1" fill-rule="nonzero"/><path fill="#1456c1" d="M 236.773438 202.71875 C 232.167969 174.925781 189.273438 182.089844 197.398438 211.503906 C 204.960938 234.285156 239.792969 227.371094 236.773438 202.71875 Z M 216.414062 194.429688 C 229.9375 195.347656 231.296875 215.105469 216.726562 216.097656 C 203.773438 215.492188 201.472656 195.824219 216.414062 194.429688 Z M 216.414062 194.429688 " fill-opacity="1" fill-rule="nonzero"/><path fill="#1456c1" d="M 221.914062 244.539062 C 218.585938 233.222656 205.21875 224.695312 192.21875 233.832031 C 172.605469 248.589844 193.507812 278.511719 214.105469 265.183594 C 222.03125 259.832031 224.027344 251.480469 221.914062 244.539062 Z M 206.957031 240.410156 C 216.328125 244.871094 214.09375 258.480469 203.492188 258.867188 C 189.160156 257.296875 192.300781 235.945312 206.957031 240.410156 Z M 206.957031 240.410156 " fill-opacity="1" fill-rule="nonzero"/><path fill="#1456c1" d="M 206.957031 240.410156 C 206.320312 240.207031 205.6875 239.996094 205.050781 239.78125 C 205.714844 239.90625 206.351562 240.128906 206.957031 240.410156 Z M 206.957031 240.410156 " fill-opacity="1" fill-rule="nonzero"/><path fill="#1456c1" d="M 222.96875 283.644531 C 219.203125 273.621094 205.308594 267.394531 195.5 278.753906 C 183.644531 293.703125 203.851562 313.183594 218.394531 300.644531 C 224.121094 295.273438 224.953125 288.929688 222.96875 283.644531 Z M 211.933594 293.460938 C 203.113281 299.996094 196.554688 283.65625 207.648438 282.320312 C 212.503906 282.847656 217.308594 288.328125 211.933594 293.460938 Z M 211.933594 293.460938 " fill-opacity="1" fill-rule="nonzero"/><g clip-path="url(#8a8935e943)"><path fill="#1456c1" d="M 191.769531 313.238281 C 190.210938 301.371094 173.460938 294.605469 165.085938 307.582031 C 156.941406 320.648438 174.28125 336.679688 186.898438 325.742188 C 190.46875 322.550781 192.519531 317.628906 191.761719 313.242188 Z M 181.125 319.191406 C 175.34375 324.515625 167.554688 313.910156 174.648438 310.019531 C 179.566406 306.972656 186.769531 314.058594 181.125 319.191406 Z M 181.125 319.191406 " fill-opacity="1" fill-rule="nonzero"/></g><path fill="#1456c1" d="M 206.957031 313.71875 C 206.957031 313.71875 207.289062 313.777344 207.933594 313.875 C 211.417969 314.367188 224.046875 315.679688 242.582031 312.355469 C 223.351562 319.167969 205.058594 323.089844 205.058594 323.089844 C 205.058594 323.089844 207.753906 320.0625 206.964844 313.71875 Z M 206.957031 313.71875 " fill-opacity="1" fill-rule="nonzero"/><path fill="#ffffff" d="M 244.117188 110.8125 C 244.117188 111.492188 244.050781 112.164062 243.917969 112.832031 C 243.785156 113.496094 243.589844 114.144531 243.328125 114.773438 C 243.070312 115.398438 242.75 115.996094 242.371094 116.5625 C 241.996094 117.125 241.566406 117.648438 241.085938 118.128906 C 240.605469 118.609375 240.082031 119.039062 239.515625 119.417969 C 238.953125 119.792969 238.355469 120.113281 237.726562 120.375 C 237.101562 120.632812 236.453125 120.828125 235.785156 120.960938 C 235.121094 121.09375 234.445312 121.160156 233.765625 121.160156 C 233.085938 121.160156 232.414062 121.09375 231.75 120.960938 C 231.082031 120.828125 230.433594 120.632812 229.808594 120.375 C 229.179688 120.113281 228.582031 119.792969 228.015625 119.417969 C 227.453125 119.039062 226.929688 118.609375 226.449219 118.128906 C 225.96875 117.648438 225.539062 117.125 225.160156 116.5625 C 224.785156 115.996094 224.464844 115.398438 224.207031 114.773438 C 223.945312 114.144531 223.75 113.496094 223.617188 112.832031 C 223.484375 112.164062 223.417969 111.492188 223.417969 110.8125 C 223.417969 110.132812 223.484375 109.457031 223.617188 108.792969 C 223.75 108.125 223.945312 107.476562 224.207031 106.851562 C 224.464844 106.222656 224.785156 105.625 225.160156 105.0625 C 225.539062 104.496094 225.96875 103.972656 226.449219 103.492188 C 226.929688 103.011719 227.453125 102.582031 228.015625 102.207031 C 228.582031 101.828125 229.179688 101.507812 229.808594 101.25 C 230.433594 100.988281 231.082031 100.792969 231.75 100.660156 C 232.414062 100.527344 233.085938 100.460938 233.765625 100.460938 C 234.445312 100.460938 235.121094 100.527344 235.785156 100.660156 C 236.453125 100.792969 237.101562 100.988281 237.726562 101.25 C 238.355469 101.507812 238.953125 101.828125 239.515625 102.207031 C 240.082031 102.582031 240.605469 103.011719 241.085938 103.492188 C 241.566406 103.972656 241.996094 104.496094 242.371094 105.0625 C 242.75 105.625 243.070312 106.222656 243.328125 106.851562 C 243.589844 107.476562 243.785156 108.125 243.917969 108.792969 C 244.050781 109.457031 244.117188 110.132812 244.117188 110.8125 Z M 244.117188 110.8125 " fill-opacity="1" fill-rule="nonzero"/><path fill="#ffffff" d="M 213.558594 148.382812 C 213.558594 149.15625 213.484375 149.921875 213.332031 150.675781 C 213.183594 151.433594 212.960938 152.167969 212.664062 152.882812 C 212.371094 153.59375 212.007812 154.273438 211.578125 154.914062 C 211.148438 155.554688 210.664062 156.148438 210.117188 156.695312 C 209.570312 157.242188 208.976562 157.726562 208.335938 158.15625 C 207.695312 158.585938 207.015625 158.949219 206.304688 159.242188 C 205.589844 159.539062 204.855469 159.761719 204.097656 159.910156 C 203.34375 160.0625 202.578125 160.136719 201.804688 160.136719 C 201.035156 160.136719 200.269531 160.0625 199.515625 159.910156 C 198.757812 159.761719 198.023438 159.539062 197.308594 159.242188 C 196.597656 158.949219 195.917969 158.585938 195.277344 158.15625 C 194.636719 157.726562 194.042969 157.242188 193.496094 156.695312 C 192.949219 156.148438 192.464844 155.554688 192.035156 154.914062 C 191.605469 154.273438 191.242188 153.59375 190.949219 152.882812 C 190.652344 152.167969 190.429688 151.433594 190.28125 150.675781 C 190.128906 149.921875 190.054688 149.15625 190.054688 148.382812 C 190.054688 147.613281 190.128906 146.847656 190.28125 146.09375 C 190.429688 145.335938 190.652344 144.601562 190.949219 143.886719 C 191.242188 143.175781 191.605469 142.496094 192.035156 141.855469 C 192.464844 141.214844 192.949219 140.621094 193.496094 140.074219 C 194.042969 139.527344 194.636719 139.042969 195.277344 138.613281 C 195.917969 138.183594 196.597656 137.820312 197.308594 137.527344 C 198.023438 137.230469 198.757812 137.007812 199.515625 136.859375 C 200.269531 136.707031 201.035156 136.632812 201.804688 136.632812 C 202.578125 136.632812 203.34375 136.707031 204.097656 136.859375 C 204.855469 137.007812 205.589844 137.230469 206.304688 137.527344 C 207.015625 137.820312 207.695312 138.183594 208.335938 138.613281 C 208.976562 139.042969 209.570312 139.527344 210.117188 140.074219 C 210.664062 140.621094 211.148438 141.214844 211.578125 141.855469 C 212.007812 142.496094 212.371094 143.175781 212.664062 143.886719 C 212.960938 144.601562 213.183594 145.335938 213.332031 146.09375 C 213.484375 146.847656 213.558594 147.613281 213.558594 148.382812 Z M 213.558594 148.382812 " fill-opacity="1" fill-rule="nonzero"/><path fill="#ffffff" d="M 185.167969 186.089844 C 185.167969 186.917969 185.085938 187.734375 184.925781 188.546875 C 184.761719 189.359375 184.523438 190.144531 184.207031 190.910156 C 183.890625 191.671875 183.503906 192.398438 183.042969 193.085938 C 182.585938 193.773438 182.0625 194.410156 181.476562 194.996094 C 180.894531 195.578125 180.257812 196.101562 179.570312 196.558594 C 178.882812 197.019531 178.15625 197.40625 177.394531 197.722656 C 176.628906 198.039062 175.839844 198.28125 175.03125 198.441406 C 174.21875 198.601562 173.402344 198.683594 172.574219 198.683594 C 171.746094 198.683594 170.929688 198.601562 170.117188 198.441406 C 169.304688 198.28125 168.519531 198.039062 167.753906 197.722656 C 166.992188 197.40625 166.265625 197.019531 165.578125 196.558594 C 164.890625 196.101562 164.253906 195.578125 163.667969 194.996094 C 163.085938 194.410156 162.5625 193.773438 162.105469 193.085938 C 161.644531 192.398438 161.257812 191.671875 160.941406 190.910156 C 160.625 190.144531 160.386719 189.359375 160.222656 188.546875 C 160.0625 187.734375 159.980469 186.917969 159.980469 186.089844 C 159.980469 185.261719 160.0625 184.445312 160.222656 183.632812 C 160.386719 182.824219 160.625 182.035156 160.941406 181.269531 C 161.257812 180.507812 161.644531 179.78125 162.105469 179.09375 C 162.5625 178.40625 163.085938 177.769531 163.667969 177.1875 C 164.253906 176.601562 164.890625 176.078125 165.578125 175.621094 C 166.265625 175.160156 166.992188 174.773438 167.753906 174.457031 C 168.519531 174.140625 169.304688 173.902344 170.117188 173.738281 C 170.929688 173.578125 171.746094 173.496094 172.574219 173.496094 C 173.402344 173.496094 174.21875 173.578125 175.03125 173.738281 C 175.839844 173.902344 176.628906 174.140625 177.394531 174.457031 C 178.15625 174.773438 178.882812 175.160156 179.570312 175.621094 C 180.257812 176.078125 180.894531 176.601562 181.476562 177.1875 C 182.0625 177.769531 182.585938 178.40625 183.042969 179.09375 C 183.503906 179.78125 183.890625 180.507812 184.207031 181.269531 C 184.523438 182.035156 184.761719 182.824219 184.925781 183.632812 C 185.085938 184.445312 185.167969 185.261719 185.167969 186.089844 Z M 185.167969 186.089844 " fill-opacity="1" fill-rule="nonzero"/><path fill="#ffffff" d="M 168.707031 234.246094 C 168.707031 234.980469 168.636719 235.703125 168.492188 236.421875 C 168.347656 237.140625 168.136719 237.839844 167.855469 238.515625 C 167.578125 239.191406 167.234375 239.835938 166.828125 240.445312 C 166.417969 241.050781 165.957031 241.617188 165.441406 242.132812 C 164.921875 242.652344 164.359375 243.113281 163.75 243.519531 C 163.140625 243.929688 162.496094 244.269531 161.820312 244.550781 C 161.144531 244.832031 160.445312 245.042969 159.730469 245.1875 C 159.011719 245.328125 158.285156 245.402344 157.554688 245.402344 C 156.820312 245.402344 156.09375 245.328125 155.378906 245.1875 C 154.660156 245.042969 153.960938 244.832031 153.285156 244.550781 C 152.609375 244.269531 151.964844 243.929688 151.355469 243.519531 C 150.746094 243.113281 150.183594 242.652344 149.667969 242.132812 C 149.148438 241.617188 148.6875 241.050781 148.28125 240.445312 C 147.871094 239.835938 147.527344 239.191406 147.25 238.515625 C 146.96875 237.839844 146.757812 237.140625 146.613281 236.421875 C 146.472656 235.703125 146.398438 234.980469 146.398438 234.246094 C 146.398438 233.515625 146.472656 232.789062 146.613281 232.070312 C 146.757812 231.351562 146.96875 230.65625 147.25 229.980469 C 147.527344 229.300781 147.871094 228.660156 148.28125 228.050781 C 148.6875 227.441406 149.148438 226.878906 149.667969 226.359375 C 150.183594 225.84375 150.746094 225.378906 151.355469 224.972656 C 151.964844 224.566406 152.609375 224.222656 153.285156 223.941406 C 153.960938 223.664062 154.660156 223.449219 155.378906 223.308594 C 156.09375 223.164062 156.820312 223.09375 157.554688 223.09375 C 158.285156 223.09375 159.011719 223.164062 159.730469 223.308594 C 160.445312 223.449219 161.144531 223.664062 161.820312 223.941406 C 162.496094 224.222656 163.140625 224.566406 163.75 224.972656 C 164.359375 225.378906 164.921875 225.84375 165.441406 226.359375 C 165.957031 226.878906 166.417969 227.441406 166.828125 228.050781 C 167.234375 228.660156 167.578125 229.300781 167.855469 229.980469 C 168.136719 230.65625 168.347656 231.351562 168.492188 232.070312 C 168.636719 232.789062 168.707031 233.515625 168.707031 234.246094 Z M 168.707031 234.246094 " fill-opacity="1" fill-rule="nonzero"/><path fill="#ffffff" d="M 169.898438 277.972656 C 169.898438 278.578125 169.839844 279.175781 169.722656 279.769531 C 169.605469 280.363281 169.429688 280.941406 169.199219 281.5 C 168.964844 282.058594 168.683594 282.589844 168.347656 283.09375 C 168.011719 283.597656 167.628906 284.0625 167.199219 284.488281 C 166.773438 284.917969 166.308594 285.300781 165.804688 285.636719 C 165.300781 285.972656 164.769531 286.257812 164.210938 286.488281 C 163.652344 286.71875 163.074219 286.894531 162.480469 287.011719 C 161.886719 287.128906 161.289062 287.191406 160.683594 287.191406 C 160.078125 287.191406 159.480469 287.128906 158.886719 287.011719 C 158.292969 286.894531 157.714844 286.71875 157.15625 286.488281 C 156.597656 286.257812 156.066406 285.972656 155.5625 285.636719 C 155.058594 285.300781 154.59375 284.917969 154.167969 284.488281 C 153.738281 284.0625 153.355469 283.597656 153.019531 283.09375 C 152.683594 282.589844 152.398438 282.058594 152.167969 281.5 C 151.9375 280.941406 151.761719 280.363281 151.644531 279.769531 C 151.527344 279.175781 151.464844 278.578125 151.464844 277.972656 C 151.464844 277.367188 151.527344 276.769531 151.644531 276.175781 C 151.761719 275.582031 151.9375 275.003906 152.167969 274.445312 C 152.398438 273.886719 152.683594 273.355469 153.019531 272.851562 C 153.355469 272.347656 153.738281 271.882812 154.167969 271.457031 C 154.59375 271.027344 155.058594 270.644531 155.5625 270.308594 C 156.066406 269.972656 156.597656 269.691406 157.15625 269.457031 C 157.714844 269.226562 158.292969 269.050781 158.886719 268.933594 C 159.480469 268.816406 160.078125 268.757812 160.683594 268.757812 C 161.289062 268.757812 161.886719 268.816406 162.480469 268.933594 C 163.074219 269.050781 163.652344 269.226562 164.210938 269.457031 C 164.769531 269.691406 165.300781 269.972656 165.804688 270.308594 C 166.308594 270.644531 166.773438 271.027344 167.199219 271.457031 C 167.628906 271.882812 168.011719 272.347656 168.347656 272.851562 C 168.683594 273.355469 168.964844 273.886719 169.199219 274.445312 C 169.429688 275.003906 169.605469 275.582031 169.722656 276.175781 C 169.839844 276.769531 169.898438 277.367188 169.898438 277.972656 Z M 169.898438 277.972656 " fill-opacity="1" fill-rule="nonzero"/><path fill="#ffffff" d="M 256.308594 166.453125 C 256.308594 167.152344 256.238281 167.847656 256.101562 168.53125 C 255.964844 169.21875 255.765625 169.886719 255.496094 170.535156 C 255.226562 171.179688 254.898438 171.796875 254.511719 172.378906 C 254.121094 172.960938 253.679688 173.5 253.183594 173.996094 C 252.6875 174.492188 252.148438 174.933594 251.566406 175.320312 C 250.984375 175.710938 250.371094 176.039062 249.722656 176.308594 C 249.074219 176.574219 248.410156 176.777344 247.722656 176.914062 C 247.035156 177.050781 246.339844 177.121094 245.640625 177.121094 C 244.941406 177.121094 244.246094 177.050781 243.558594 176.914062 C 242.871094 176.777344 242.207031 176.574219 241.558594 176.308594 C 240.910156 176.039062 240.296875 175.710938 239.714844 175.320312 C 239.132812 174.933594 238.59375 174.492188 238.097656 173.996094 C 237.601562 173.5 237.160156 172.960938 236.769531 172.378906 C 236.382812 171.796875 236.054688 171.179688 235.785156 170.535156 C 235.515625 169.886719 235.3125 169.21875 235.175781 168.53125 C 235.042969 167.847656 234.972656 167.152344 234.972656 166.453125 C 234.972656 165.75 235.042969 165.058594 235.175781 164.371094 C 235.3125 163.683594 235.515625 163.015625 235.785156 162.371094 C 236.054688 161.722656 236.382812 161.109375 236.769531 160.523438 C 237.160156 159.941406 237.601562 159.402344 238.097656 158.910156 C 238.59375 158.414062 239.132812 157.972656 239.714844 157.582031 C 240.296875 157.191406 240.910156 156.863281 241.558594 156.597656 C 242.207031 156.328125 242.871094 156.125 243.558594 155.988281 C 244.246094 155.851562 244.941406 155.785156 245.640625 155.785156 C 246.339844 155.785156 247.035156 155.851562 247.722656 155.988281 C 248.410156 156.125 249.074219 156.328125 249.722656 156.597656 C 250.371094 156.863281 250.984375 157.191406 251.566406 157.582031 C 252.148438 157.972656 252.6875 158.414062 253.183594 158.910156 C 253.679688 159.402344 254.121094 159.941406 254.511719 160.523438 C 254.898438 161.109375 255.226562 161.722656 255.496094 162.371094 C 255.765625 163.015625 255.964844 163.683594 256.101562 164.371094 C 256.238281 165.058594 256.308594 165.75 256.308594 166.453125 Z M 256.308594 166.453125 " fill-opacity="1" fill-rule="nonzero"/><path fill="#ffffff" d="M 227.84375 205.320312 C 227.84375 206.070312 227.769531 206.8125 227.625 207.550781 C 227.476562 208.285156 227.261719 209 226.972656 209.695312 C 226.6875 210.386719 226.332031 211.046875 225.917969 211.671875 C 225.5 212.292969 225.027344 212.871094 224.496094 213.402344 C 223.964844 213.933594 223.386719 214.40625 222.761719 214.824219 C 222.140625 215.242188 221.480469 215.59375 220.789062 215.878906 C 220.09375 216.167969 219.378906 216.382812 218.644531 216.53125 C 217.90625 216.675781 217.164062 216.75 216.414062 216.75 C 215.664062 216.75 214.921875 216.675781 214.183594 216.53125 C 213.449219 216.382812 212.734375 216.167969 212.039062 215.878906 C 211.347656 215.59375 210.6875 215.242188 210.0625 214.824219 C 209.441406 214.40625 208.863281 213.933594 208.332031 213.402344 C 207.800781 212.871094 207.328125 212.292969 206.910156 211.671875 C 206.492188 211.046875 206.140625 210.386719 205.855469 209.695312 C 205.566406 209 205.351562 208.285156 205.203125 207.550781 C 205.058594 206.8125 204.984375 206.070312 204.984375 205.320312 C 204.984375 204.570312 205.058594 203.828125 205.203125 203.089844 C 205.351562 202.355469 205.566406 201.640625 205.855469 200.945312 C 206.140625 200.253906 206.492188 199.59375 206.910156 198.972656 C 207.328125 198.347656 207.800781 197.769531 208.332031 197.238281 C 208.863281 196.707031 209.441406 196.234375 210.0625 195.816406 C 210.6875 195.402344 211.347656 195.046875 212.039062 194.761719 C 212.734375 194.472656 213.449219 194.257812 214.183594 194.109375 C 214.921875 193.964844 215.664062 193.890625 216.414062 193.890625 C 217.164062 193.890625 217.90625 193.964844 218.644531 194.109375 C 219.378906 194.257812 220.09375 194.472656 220.789062 194.761719 C 221.480469 195.046875 222.140625 195.402344 222.761719 195.816406 C 223.386719 196.234375 223.964844 196.707031 224.496094 197.238281 C 225.027344 197.769531 225.5 198.347656 225.917969 198.972656 C 226.332031 199.59375 226.6875 200.253906 226.972656 200.945312 C 227.261719 201.640625 227.476562 202.355469 227.625 203.089844 C 227.769531 203.828125 227.84375 204.570312 227.84375 205.320312 Z M 227.84375 205.320312 " fill-opacity="1" fill-rule="nonzero"/><path fill="#ffffff" d="M 213.828125 249.335938 C 213.828125 250.035156 213.761719 250.726562 213.625 251.414062 C 213.488281 252.097656 213.285156 252.765625 213.019531 253.410156 C 212.75 254.058594 212.421875 254.671875 212.035156 255.253906 C 211.644531 255.835938 211.203125 256.375 210.707031 256.867188 C 210.214844 257.363281 209.675781 257.804688 209.09375 258.195312 C 208.511719 258.582031 207.898438 258.910156 207.25 259.179688 C 206.605469 259.445312 205.9375 259.648438 205.253906 259.785156 C 204.566406 259.921875 203.875 259.988281 203.171875 259.988281 C 202.472656 259.988281 201.78125 259.921875 201.09375 259.785156 C 200.410156 259.648438 199.742188 259.445312 199.097656 259.179688 C 198.449219 258.910156 197.835938 258.582031 197.253906 258.195312 C 196.671875 257.804688 196.132812 257.363281 195.640625 256.867188 C 195.144531 256.375 194.703125 255.835938 194.3125 255.253906 C 193.925781 254.671875 193.597656 254.058594 193.328125 253.410156 C 193.0625 252.765625 192.859375 252.097656 192.722656 251.414062 C 192.585938 250.726562 192.519531 250.035156 192.519531 249.335938 C 192.519531 248.632812 192.585938 247.941406 192.722656 247.253906 C 192.859375 246.570312 193.0625 245.902344 193.328125 245.257812 C 193.597656 244.609375 193.925781 243.996094 194.3125 243.414062 C 194.703125 242.832031 195.144531 242.292969 195.640625 241.800781 C 196.132812 241.304688 196.671875 240.863281 197.253906 240.472656 C 197.835938 240.085938 198.449219 239.757812 199.097656 239.488281 C 199.742188 239.222656 200.410156 239.019531 201.09375 238.882812 C 201.78125 238.746094 202.472656 238.679688 203.171875 238.679688 C 203.875 238.679688 204.566406 238.746094 205.253906 238.882812 C 205.9375 239.019531 206.605469 239.222656 207.25 239.488281 C 207.898438 239.757812 208.511719 240.085938 209.09375 240.472656 C 209.675781 240.863281 210.214844 241.304688 210.707031 241.800781 C 211.203125 242.292969 211.644531 242.832031 212.035156 243.414062 C 212.421875 243.996094 212.75 244.609375 213.019531 245.257812 C 213.285156 245.902344 213.488281 246.570312 213.625 247.253906 C 213.761719 247.941406 213.828125 248.632812 213.828125 249.335938 Z M 213.828125 249.335938 " fill-opacity="1" fill-rule="nonzero"/><path fill="#ffffff" d="M 215.542969 288.664062 C 215.542969 289.164062 215.496094 289.660156 215.398438 290.148438 C 215.300781 290.640625 215.15625 291.117188 214.964844 291.578125 C 214.773438 292.039062 214.539062 292.480469 214.261719 292.894531 C 213.984375 293.3125 213.667969 293.695312 213.3125 294.050781 C 212.960938 294.402344 212.574219 294.71875 212.160156 294.996094 C 211.742188 295.273438 211.304688 295.507812 210.84375 295.699219 C 210.382812 295.890625 209.90625 296.035156 209.414062 296.132812 C 208.925781 296.230469 208.429688 296.28125 207.929688 296.28125 C 207.429688 296.28125 206.933594 296.230469 206.441406 296.132812 C 205.953125 296.035156 205.476562 295.890625 205.015625 295.699219 C 204.550781 295.507812 204.113281 295.273438 203.699219 294.996094 C 203.28125 294.71875 202.898438 294.402344 202.542969 294.050781 C 202.191406 293.695312 201.875 293.3125 201.597656 292.894531 C 201.320312 292.480469 201.085938 292.039062 200.894531 291.578125 C 200.703125 291.117188 200.558594 290.640625 200.460938 290.148438 C 200.363281 289.660156 200.3125 289.164062 200.3125 288.664062 C 200.3125 288.164062 200.363281 287.667969 200.460938 287.179688 C 200.558594 286.6875 200.703125 286.210938 200.894531 285.75 C 201.085938 285.289062 201.320312 284.847656 201.597656 284.433594 C 201.875 284.019531 202.191406 283.632812 202.542969 283.28125 C 202.898438 282.925781 203.28125 282.609375 203.699219 282.332031 C 204.113281 282.054688 204.550781 281.820312 205.015625 281.628906 C 205.476562 281.4375 205.953125 281.292969 206.441406 281.195312 C 206.933594 281.097656 207.429688 281.050781 207.929688 281.050781 C 208.429688 281.050781 208.925781 281.097656 209.414062 281.195312 C 209.90625 281.292969 210.382812 281.4375 210.84375 281.628906 C 211.304688 281.820312 211.742188 282.054688 212.160156 282.332031 C 212.574219 282.609375 212.960938 282.925781 213.3125 283.28125 C 213.667969 283.632812 213.984375 284.019531 214.261719 284.433594 C 214.539062 284.847656 214.773438 285.289062 214.964844 285.75 C 215.15625 286.210938 215.300781 286.6875 215.398438 287.179688 C 215.496094 287.667969 215.542969 288.164062 215.542969 288.664062 Z M 215.542969 288.664062 " fill-opacity="1" fill-rule="nonzero"/><path fill="#ffffff" d="M 183.914062 314.628906 C 183.914062 315.09375 183.867188 315.554688 183.777344 316.007812 C 183.6875 316.464844 183.554688 316.90625 183.375 317.335938 C 183.199219 317.761719 182.980469 318.171875 182.722656 318.558594 C 182.464844 318.941406 182.171875 319.300781 181.84375 319.628906 C 181.515625 319.957031 181.15625 320.25 180.769531 320.507812 C 180.386719 320.765625 179.976562 320.984375 179.550781 321.160156 C 179.121094 321.339844 178.679688 321.472656 178.222656 321.5625 C 177.765625 321.652344 177.308594 321.699219 176.84375 321.699219 C 176.378906 321.699219 175.917969 321.652344 175.464844 321.5625 C 175.007812 321.472656 174.566406 321.339844 174.136719 321.160156 C 173.710938 320.984375 173.300781 320.765625 172.914062 320.507812 C 172.53125 320.25 172.171875 319.957031 171.84375 319.628906 C 171.515625 319.300781 171.222656 318.941406 170.964844 318.558594 C 170.707031 318.171875 170.488281 317.761719 170.3125 317.335938 C 170.132812 316.90625 170 316.464844 169.910156 316.007812 C 169.820312 315.554688 169.773438 315.09375 169.773438 314.628906 C 169.773438 314.164062 169.820312 313.707031 169.910156 313.25 C 170 312.792969 170.132812 312.351562 170.3125 311.921875 C 170.488281 311.496094 170.707031 311.085938 170.964844 310.703125 C 171.222656 310.316406 171.515625 309.957031 171.84375 309.628906 C 172.171875 309.300781 172.53125 309.007812 172.914062 308.75 C 173.300781 308.492188 173.710938 308.273438 174.136719 308.097656 C 174.566406 307.917969 175.007812 307.785156 175.464844 307.695312 C 175.917969 307.605469 176.378906 307.558594 176.84375 307.558594 C 177.308594 307.558594 177.765625 307.605469 178.222656 307.695312 C 178.679688 307.785156 179.121094 307.917969 179.550781 308.097656 C 179.976562 308.273438 180.386719 308.492188 180.769531 308.75 C 181.15625 309.007812 181.515625 309.300781 181.84375 309.628906 C 182.171875 309.957031 182.464844 310.316406 182.722656 310.703125 C 182.980469 311.085938 183.199219 311.496094 183.375 311.921875 C 183.554688 312.351562 183.6875 312.792969 183.777344 313.25 C 183.867188 313.707031 183.914062 314.164062 183.914062 314.628906 Z M 183.914062 314.628906 " fill-opacity="1" fill-rule="nonzero"/><path fill="#ffffff" d="M 284.796875 124.296875 C 284.796875 124.855469 284.742188 125.40625 284.632812 125.953125 C 284.523438 126.496094 284.363281 127.027344 284.152344 127.542969 C 283.9375 128.054688 283.675781 128.542969 283.367188 129.007812 C 283.058594 129.472656 282.707031 129.898438 282.3125 130.292969 C 281.917969 130.6875 281.492188 131.039062 281.027344 131.347656 C 280.566406 131.65625 280.078125 131.917969 279.5625 132.128906 C 279.046875 132.34375 278.519531 132.503906 277.972656 132.613281 C 277.425781 132.722656 276.875 132.777344 276.316406 132.777344 C 275.761719 132.777344 275.210938 132.722656 274.664062 132.613281 C 274.117188 132.503906 273.585938 132.34375 273.074219 132.128906 C 272.558594 131.917969 272.070312 131.65625 271.605469 131.347656 C 271.144531 131.039062 270.714844 130.6875 270.324219 130.292969 C 269.929688 129.898438 269.578125 129.472656 269.269531 129.007812 C 268.957031 128.542969 268.699219 128.054688 268.484375 127.542969 C 268.269531 127.027344 268.109375 126.496094 268 125.953125 C 267.894531 125.40625 267.839844 124.855469 267.839844 124.296875 C 267.839844 123.742188 267.894531 123.1875 268 122.644531 C 268.109375 122.097656 268.269531 121.566406 268.484375 121.050781 C 268.699219 120.539062 268.957031 120.050781 269.269531 119.585938 C 269.578125 119.125 269.929688 118.695312 270.324219 118.300781 C 270.714844 117.90625 271.144531 117.554688 271.605469 117.246094 C 272.070312 116.9375 272.558594 116.675781 273.074219 116.464844 C 273.585938 116.25 274.117188 116.089844 274.664062 115.980469 C 275.210938 115.871094 275.761719 115.816406 276.316406 115.816406 C 276.875 115.816406 277.425781 115.871094 277.972656 115.980469 C 278.519531 116.089844 279.046875 116.25 279.5625 116.464844 C 280.078125 116.675781 280.566406 116.9375 281.027344 117.246094 C 281.492188 117.554688 281.917969 117.90625 282.3125 118.300781 C 282.707031 118.695312 283.058594 119.125 283.367188 119.585938 C 283.675781 120.050781 283.9375 120.539062 284.152344 121.050781 C 284.363281 121.566406 284.523438 122.097656 284.632812 122.644531 C 284.742188 123.1875 284.796875 123.742188 284.796875 124.296875 Z M 284.796875 124.296875 " fill-opacity="1" fill-rule="nonzero"/></svg>